<svg xmlns="http://www.w3.org/2000/svg" xmlns:xlink="http://www.w3.org/1999/xlink" version="1.1" width="1000" height="1000" viewBox="0 0 1000 1000" xml:space="preserve">
<desc>Created with Fabric.js 3.5.0</desc>
<defs>
</defs>
<rect x="0" y="0" width="100%" height="100%" fill="#ffffff"/>
<g transform="matrix(0 1 -1 0 500 500)" id="161733">
<path style="stroke: none; stroke-width: 1; stroke-dasharray: none; stroke-linecap: butt; stroke-dashoffset: 0; stroke-linejoin: miter; stroke-miterlimit: 4; is-custom-font: none; font-file-url: none; fill: rgb(255,219,0); fill-rule: nonzero; opacity: 1;" vector-effect="non-scaling-stroke" transform=" translate(-15.38, -43.955)" d="M 26.105 43.955 C 26.105 44.18 26.03 44.18 26.03 44.255 L 16.505 53.855 C 16.43 53.93 16.43 53.93 16.205 53.93 C 15.98 53.93 15.98 53.855 15.905 53.855 L 14.78 52.73 C 14.705 52.655 14.705 52.655 14.705 52.43 C 14.705 52.205 14.78 52.205 14.78 52.13 L 21.68 45.23 H 4.88 C 4.805 45.23 4.73 45.23 4.73 45.23 C 4.655 45.155 4.655 45.08 4.655 44.93 V 43.055 C 4.655 42.905 4.73 42.755 4.73 42.68 C 4.73 42.68 4.805 42.68 4.88 42.68 H 21.68 L 14.78 35.78 C 14.705 35.705 14.705 35.705 14.705 35.48 C 14.705 35.255 14.78 35.255 14.78 35.18 L 15.905 34.055 C 15.98 33.98 15.98 33.98 16.205 33.98 C 16.43 33.98 16.43 34.055 16.505 34.055 L 26.03 43.655 C 26.03 43.73 26.105 43.73 26.105 43.955 Z" stroke-linecap="round"/>
</g>
</svg>