<svg width="31" height="89" viewBox="0 0 31 89" fill="none" xmlns="http://www.w3.org/2000/svg">
<g id="icon-67ad41ecc66a1b1cd00d0d3b20c00017">
<path id="Vector" d="M26.105 43.955C26.105 44.18 26.03 44.18 26.03 44.255L16.505 53.855C16.43 53.93 16.43 53.93 16.205 53.93C15.98 53.93 15.98 53.855 15.905 53.855L14.78 52.73C14.705 52.655 14.705 52.655 14.705 52.43C14.705 52.205 14.78 52.205 14.78 52.13L21.68 45.23H4.88C4.805 45.23 4.73 45.23 4.73 45.23C4.655 45.155 4.655 45.08 4.655 44.93V43.055C4.655 42.905 4.73 42.755 4.73 42.68C4.73 42.68 4.805 42.68 4.88 42.68H21.68L14.78 35.78C14.705 35.705 14.705 35.705 14.705 35.48C14.705 35.255 14.78 35.255 14.78 35.18L15.905 34.055C15.98 33.98 15.98 33.98 16.205 33.98C16.43 33.98 16.43 34.055 16.505 34.055L26.03 43.655C26.03 43.73 26.105 43.73 26.105 43.955Z" fill="#cf6cfd"/>
</g>
</svg>